HIERARCHY
ROOT Hips
{
	OFFSET 0.000000 0.000000 0.000000
	CHANNELS 6 Xposition Yposition Zposition Zrotation Yrotation Xrotation 
	JOINT LHipJoint
	{
		OFFSET 0.000000 0.000000 0.000000
		CHANNELS 3 Zrotation Yrotation Xrotation
		JOINT LeftUpLeg
		{
			OFFSET 1.363060 -1.794630 0.839290
			CHANNELS 3 Zrotation Yrotation Xrotation
			JOINT LeftLeg
			{
				OFFSET 2.448110 -6.726130 0.000000
				CHANNELS 3 Zrotation Yrotation Xrotation
				JOINT LeftFoot
				{
					OFFSET 2.562200 -7.039590 0.000000
					CHANNELS 3 Zrotation Yrotation Xrotation
					JOINT LeftToeBase
					{
						OFFSET 0.157640 -0.433110 2.322550
						CHANNELS 3 Zrotation Yrotation Xrotation
						End Site
						{
							OFFSET 0.000000 0.000000 0.000000
						}
					}
				}
			}
		}
	}
	JOINT RHipJoint
	{
		OFFSET 0.000000 0.000000 0.000000
		CHANNELS 3 Zrotation Yrotation Xrotation
		JOINT RightUpLeg
		{
			OFFSET -1.305520 -1.794630 0.839290
			CHANNELS 3 Zrotation Yrotation Xrotation
			JOINT RightLeg
			{
				OFFSET -2.542530 -6.985550 0.000000
				CHANNELS 3 Zrotation Yrotation Xrotation
				JOINT RightFoot
				{
					OFFSET -2.568260 -7.056230 0.000000
					CHANNELS 3 Zrotation Yrotation Xrotation
					JOINT RightToeBase
					{
						OFFSET -0.164730 -0.452590 2.363150
						CHANNELS 3 Zrotation Yrotation Xrotation
						End Site
						{
							OFFSET 0.000000 0.000000 0.000000
						}
					}
				}
			}
		}
	}
	JOINT LowerBack
	{
		OFFSET 0.000000 0.000000 0.000000
		CHANNELS 3 Zrotation Yrotation Xrotation
		JOINT Spine
		{
			OFFSET 0.028270 2.035590 -0.193380
			CHANNELS 3 Zrotation Yrotation Xrotation
			JOINT Spine1
			{
				OFFSET 0.056720 2.048850 -0.042750
				CHANNELS 3 Zrotation Yrotation Xrotation
				JOINT Neck
				{
					OFFSET 0.000000 0.000000 0.000000
					CHANNELS 3 Zrotation Yrotation Xrotation
					JOINT Neck1
					{
						OFFSET -0.054170 1.746240 0.172020
						CHANNELS 3 Zrotation Yrotation Xrotation
						JOINT Head
						{
							OFFSET 0.104070 1.761360 -0.123970
							CHANNELS 3 Zrotation Yrotation Xrotation
							End Site
							{
								OFFSET 0.000000 0.000000 0.000000
							}
						}
					}
				}
				JOINT LeftShoulder
				{
					OFFSET 0.000000 0.000000 0.000000
					CHANNELS 3 Zrotation Yrotation Xrotation
					JOINT LeftArm
					{
						OFFSET 3.362410 1.200890 -0.311210
						CHANNELS 3 Zrotation Yrotation Xrotation
						JOINT LeftForeArm
						{
							OFFSET 4.983000 -0.000000 -0.000000
							CHANNELS 3 Zrotation Yrotation Xrotation
							JOINT LeftHand
							{
								OFFSET 3.483560 -0.000000 -0.000000
								CHANNELS 3 Zrotation Yrotation Xrotation
								JOINT LeftFingerBase
								{
									OFFSET 0.000000 0.000000 0.000000
									CHANNELS 3 Zrotation Yrotation Xrotation
									JOINT LeftHandIndex1
									{
										OFFSET 0.715260 -0.000000 -0.000000
										CHANNELS 3 Zrotation Yrotation Xrotation
										End Site
										{
											OFFSET 0.000000 0.000000 0.000000
										}
									}
								}
								JOINT LThumb
								{
									OFFSET 0.000000 0.000000 0.000000
									CHANNELS 3 Zrotation Yrotation Xrotation
									End Site
									{
										OFFSET 0.000000 0.000000 0.000000
									}
								}
							}
						}
					}
				}
				JOINT RightShoulder
				{
					OFFSET 0.000000 0.000000 0.000000
					CHANNELS 3 Zrotation Yrotation Xrotation
					JOINT RightArm
					{
						OFFSET -3.136600 1.374050 -0.404650
						CHANNELS 3 Zrotation Yrotation Xrotation
						JOINT RightForeArm
						{
							OFFSET -5.241900 -0.000000 -0.000000
							CHANNELS 3 Zrotation Yrotation Xrotation
							JOINT RightHand
							{
								OFFSET -3.444170 -0.000000 -0.000000
								CHANNELS 3 Zrotation Yrotation Xrotation
								JOINT RightFingerBase
								{
									OFFSET 0.000000 0.000000 0.000000
									CHANNELS 3 Zrotation Yrotation Xrotation
									JOINT RightHandIndex1
									{
										OFFSET -0.622530 -0.000000 -0.000000
										CHANNELS 3 Zrotation Yrotation Xrotation
										End Site
										{
											OFFSET 0.000000 0.000000 0.000000
										}
									}
								}
								JOINT RThumb
								{
									OFFSET 0.000000 0.000000 0.000000
									CHANNELS 3 Zrotation Yrotation Xrotation
									End Site
									{
										OFFSET 0.000000 0.000000 0.000000
									}
								}
							}
						}
					}
				}
			}
		}
	}
}
MOTION
Frames: 10
Frame Time: 0.008333
4.012965 17.085683 -2.576206 -170.946110 51.672897 -158.369491 -9.547122 2.430272 1.532584 -26.759884 11.764482 -35.114823 -4.035852 -0.859269 12.845612 1.441523 4.703142 -12.416671 -0.477900 0.000000 -13.679401 9.813096 -5.021149 -2.198400 6.633035 -25.157649 -5.147446 2.206244 -1.710935 22.101323 0.533997 9.156037 18.099119 3.513400 -0.000000 -89.221100 -0.000033 1.298612 -0.977153 -0.955764 1.234415 -3.088332 -6.280164 1.295808 0.480857 6.950820 -9.044168 -8.016720 -3.081202 -0.226562 -0.162212 0.000000 0.000000 0.000000 -1.027132 17.527742 0.552717 -65.227234 11.849600 16.428718 -0.133752 -86.989362 -0.011549 2.223331 7.509378 0.151233 -0.085285 0.079258 0.000000 0.000000 0.000000 0.000000 0.000000 0.000000 0.000000 9.908128 -1.460861 -0.140913 52.871317 24.571920 21.106585 -0.014074 89.326351 0.001158 -0.356789 3.168866 -0.011017 0.029362 -0.390441 -0.000000 0.000000 0.000000 0.000000 0.000000 0.000000 0.000000 
4.128265 17.023567 -2.678969 -170.611323 51.009719 -158.221491 -9.550403 2.420181 1.590085 -26.604633 11.329560 -34.992574 -3.935925 -0.833562 13.392689 1.628731 5.467186 -13.200334 -0.627100 -0.000000 -8.169300 9.845855 -5.056870 -2.130640 6.383602 -24.728604 -4.994163 2.082971 -1.819094 23.556019 0.581337 11.065329 19.026124 4.450500 0.000000 -91.395800 -0.100142 1.252415 -1.065898 -0.978438 1.192072 -3.106824 -6.312261 1.253720 0.472543 7.390219 -9.103501 -7.932828 -3.051202 -0.225673 -0.132162 0.000000 0.000000 0.000000 -0.868391 17.300651 0.526594 -65.491573 12.032070 16.039458 -0.133963 -86.999188 -0.011232 2.226320 7.418658 0.149320 -0.082869 0.081847 0.000000 0.000000 0.000000 0.000000 0.000000 0.000000 0.000000 10.163094 -1.559414 -0.105016 52.534539 24.507299 20.981266 -0.033976 89.736216 0.001204 -0.368071 3.225358 -0.011601 0.030784 -0.393750 -0.000000 0.000000 0.000000 0.000000 0.000000 0.000000 0.000000 
4.244418 16.959026 -2.780226 -170.402770 50.367781 -158.131501 -9.532131 2.403529 1.696408 -26.317122 10.519692 -34.924953 -3.802649 -0.764900 14.443543 1.861644 6.362488 -14.239257 -0.844200 -0.000000 -2.909800 9.912578 -5.064580 -2.066006 6.055869 -24.298531 -5.011879 1.941243 -1.925728 25.203254 0.604629 13.073154 20.011243 5.497400 0.000000 -93.169800 -0.283347 1.184036 -1.185487 -1.017970 1.132331 -3.131586 -6.349602 1.193793 0.462540 7.850992 -9.136814 -7.850766 -3.024117 -0.224932 -0.103469 0.000000 0.000000 0.000000 -0.746936 17.083490 0.509080 -65.669749 12.141450 15.682257 -0.134403 -87.006839 -0.011048 2.244912 7.339671 0.148815 -0.081258 0.084365 0.000000 0.000000 0.000000 0.000000 0.000000 0.000000 0.000000 10.449591 -1.637637 -0.067784 52.244082 24.430761 20.887279 179.947805 89.889400 -179.998708 -0.377534 3.314658 -0.012279 0.032326 -0.397651 -0.000000 0.000000 0.000000 0.000000 0.000000 0.000000 0.000000 
4.360892 16.892799 -2.879824 -170.328646 49.742051 -158.116842 -9.491602 2.385723 1.835051 -25.960294 9.424622 -34.937908 -3.647284 -0.650282 15.993193 2.123609 7.310217 -15.485899 178.868401 0.000001 -1.739500 10.014131 -5.044592 -2.010230 5.633116 -23.903033 -5.188492 1.779874 -2.028355 27.029317 0.596733 15.069098 21.064990 6.621900 -0.000001 -94.514000 -0.546677 1.094646 -1.318469 -1.073038 1.056899 -3.158847 -6.389746 1.117749 0.451852 8.318258 -9.146887 -7.771388 -2.997633 -0.224111 -0.076645 0.000000 0.000000 0.000000 -0.671078 16.886059 0.501268 -65.753172 12.139865 15.386167 -0.136692 -86.980204 -0.011088 2.299735 7.276639 0.150819 -0.080930 0.086831 0.000000 0.000000 0.000000 0.000000 0.000000 0.000000 0.000000 10.742359 -1.699691 -0.034073 52.024671 24.332094 20.819947 179.931821 89.558697 -179.998541 -0.376899 3.433109 -0.012657 0.033668 -0.402000 -0.000000 0.000000 0.000000 0.000000 0.000000 0.000000 0.000000 
4.476855 16.825819 -2.977951 -170.375404 49.128740 -158.178134 -9.434142 2.369813 1.984703 -25.589803 8.167005 -35.049345 -3.482503 -0.491085 17.996018 2.392394 8.218304 -16.883888 178.517900 -0.000000 -5.596700 10.143491 -4.999655 -1.964838 5.123731 -23.547894 -5.498978 1.599221 -2.125505 29.009282 0.554585 16.894109 22.181730 7.759500 0.000000 -95.220600 -0.870115 0.989162 -1.447368 -1.139008 0.969998 -3.185116 -6.430122 1.029845 0.440083 8.772473 -9.136994 -7.693782 -2.969549 -0.223029 -0.051606 0.000000 0.000000 0.000000 -0.655842 16.711824 0.503185 -65.737798 11.998181 15.175013 -0.142346 -86.890061 -0.011421 2.406844 7.233944 0.156736 -0.082236 0.089225 0.000000 0.000000 0.000000 0.000000 0.000000 0.000000 0.000000 11.011096 -1.749094 -0.008431 51.897808 24.197450 20.772932 179.918585 89.280088 -179.998270 -0.359163 3.572679 -0.012636 0.034517 -0.406530 -0.000000 0.000000 0.000000 0.000000 0.000000 0.000000 0.000000 
4.591425 16.759109 -3.074630 -170.544069 48.525845 -158.338000 -9.363360 2.359202 2.122503 -25.267891 6.874364 -35.225546 -3.320963 -0.296928 20.336210 2.646278 9.015572 -18.361193 178.123000 0.000000 -8.602900 10.298093 -4.930776 -1.936556 4.509057 -23.258898 -5.908915 1.400976 -2.217505 31.117074 0.478234 18.410292 23.368100 8.845500 0.000000 -95.450400 -1.244660 0.872794 -1.545737 -1.213584 0.877039 -3.205049 -6.468383 0.935640 0.427968 9.196685 -9.113498 -7.617613 -2.937989 -0.221510 -0.028513 0.000000 0.000000 0.000000 -0.704161 16.565535 0.515021 -65.628889 11.679548 15.073532 -0.153341 -86.698249 -0.012103 2.577798 7.213319 0.167065 -0.085422 0.091576 0.000000 0.000000 0.000000 0.000000 0.000000 0.000000 0.000000 11.231675 -1.792899 0.005109 51.881139 24.016546 20.737611 179.908931 89.063194 -179.997876 -0.317827 3.721708 -0.011621 0.034569 -0.410901 -0.000000 0.000000 0.000000 0.000000 0.000000 0.000000 0.000000 
4.703694 16.694088 -3.170082 -170.826135 47.931442 -158.603828 -9.284220 2.355105 2.231079 -25.038022 5.653732 -35.412268 -3.172850 -0.083593 22.851612 2.869087 9.660263 -19.847760 177.708800 -0.000000 -10.807400 10.471221 -4.839661 -1.927686 3.790101 -23.032408 -6.383213 1.188192 -2.305473 33.319186 0.370471 19.460129 24.613757 9.785300 0.000001 -95.120399 -1.655198 0.752436 -1.595397 -1.293679 0.784257 -3.215117 -6.503439 0.841540 0.415657 9.576209 -9.082532 -7.541493 -2.902392 -0.219518 -0.007082 0.000000 0.000000 0.000000 -0.821937 16.445407 0.535982 -65.434116 11.158843 15.097198 -0.171319 -86.375607 -0.013163 2.817912 7.215356 0.182407 -0.090573 0.093874 0.000000 0.000000 0.000000 0.000000 0.000000 0.000000 0.000000 11.388375 -1.837198 0.004411 51.982721 23.778575 20.704764 179.903540 88.916202 -179.997362 -0.248984 3.865803 -0.009513 0.033635 -0.414705 -0.000000 0.000000 0.000000 0.000000 0.000000 0.000000 0.000000 
4.812631 16.632298 -3.264984 -171.193463 47.339904 -158.957296 -9.203996 2.356256 2.301489 -24.915266 4.579211 -35.555403 -3.044419 0.131140 25.369315 3.052634 10.140072 -21.286331 177.300700 0.000000 -12.303200 10.651281 -4.729150 -1.936028 2.995384 -22.841487 -6.897900 0.965118 -2.390989 35.581600 0.235646 19.890602 25.889737 10.461500 0.000001 -94.226499 -2.074847 0.635957 -1.591066 -1.374322 0.697538 -3.214451 -6.535692 0.753596 0.402797 9.899108 -9.048128 -7.463086 -2.863648 -0.217170 0.013463 0.000000 0.000000 0.000000 -1.019824 16.343872 0.564391 -65.161572 10.426040 15.250877 -0.197403 -85.906260 -0.014604 3.126156 7.238725 0.202659 -0.097618 0.096086 0.000000 0.000000 0.000000 0.000000 0.000000 0.000000 0.000000 11.474366 -1.885232 -0.010687 52.196291 23.471865 20.664119 179.902650 88.843685 -179.996729 -0.150328 3.989418 -0.005915 0.031619 -0.417488 -0.000000 0.000000 0.000000 0.000000 0.000000 0.000000 0.000000 
4.917580 16.575287 -3.359601 -171.637176 46.746283 -159.390218 -9.124401 2.362179 2.332734 -24.908786 3.681731 -35.594143 -2.939371 0.329870 27.720952 3.197551 10.474359 -22.627829 176.918799 -0.000000 -13.177800 10.831726 -4.599811 -1.960177 2.141385 -22.669481 -7.438799 0.736682 -2.475318 37.871156 0.076013 19.599110 27.162759 10.767500 0.000000 -92.935100 -2.490016 0.528607 -1.532988 -1.453198 0.620921 -3.202969 -6.565687 0.675993 0.390712 10.160286 -9.015011 -7.381008 -2.823425 -0.214635 0.033683 0.000000 0.000000 0.000000 -1.297175 16.254141 0.598572 -64.826616 9.474911 15.536393 -0.232550 -85.278946 -0.016403 3.496131 7.278555 0.227520 -0.106357 0.098239 0.000000 0.000000 0.000000 0.000000 0.000000 0.000000 0.000000 11.495151 -1.941777 -0.038945 52.507321 23.092013 20.606954 179.906466 88.849321 -179.995993 -0.021857 4.077862 -0.000928 0.028522 -0.418840 -0.000000 0.000000 0.000000 0.000000 0.000000 0.000000 0.000000 
5.017742 16.524496 -3.454658 -172.133230 46.142369 -159.875063 -9.048032 2.370745 2.329724 -25.008331 2.961810 -35.488827 -2.858046 0.499414 29.777310 3.309545 10.695221 -23.839463 176.575300 0.000000 -13.524999 11.004283 -4.452650 -1.995471 1.258775 -22.486902 -8.003684 0.508442 -2.559449 40.162710 -0.107575 18.525995 28.370816 10.607500 -0.000000 -91.165200 -2.882310 0.434854 -1.430561 -1.527195 0.557145 -3.182488 -6.594756 0.611547 0.380175 10.358347 -8.986018 -7.293280 -2.784059 -0.212157 0.054435 0.000000 0.000000 0.000000 -1.652716 16.164703 0.636323 -64.447875 8.316700 15.945873 -0.277005 -84.497896 -0.018506 3.916774 7.327401 0.256288 -0.116450 0.100388 0.000000 0.000000 0.000000 0.000000 0.000000 0.000000 0.000000 11.462343 -2.009452 -0.077522 52.891155 22.635952 20.525444 179.914776 88.933391 -179.995168 0.135416 4.118299 0.005449 0.024428 -0.418401 -0.000000 0.000000 0.000000 0.000000 0.000000 0.000000 0.000000 
